<?xml version="1.0" encoding="UTF-8"?>
<!DOCTYPE svg PUBLIC "-//W3C//DTD SVG 1.1//EN" "http://www.w3.org/Graphics/SVG/1.1/DTD/svg11.dtd">
<svg xmlns="http://www.w3.org/2000/svg" version="1.1" width="500px" height="500px" style="shape-rendering:geometricPrecision; text-rendering:geometricPrecision; image-rendering:optimizeQuality; fill-rule:evenodd; clip-rule:evenodd" xmlns:xlink="http://www.w3.org/1999/xlink">
<g><path style="opacity:1" fill="#fefefe" d="M -0.5,-0.5 C 166.167,-0.5 332.833,-0.5 499.5,-0.5C 499.5,166.167 499.5,332.833 499.5,499.5C 332.833,499.5 166.167,499.5 -0.5,499.5C -0.5,332.833 -0.5,166.167 -0.5,-0.5 Z"/></g>
<g><path style="opacity:1" fill="#145257" d="M 286.5,124.5 C 282.254,147.492 272.254,167.658 256.5,185C 253.298,186.483 249.964,186.817 246.5,186C 229.625,168.749 219.292,148.249 215.5,124.5C 211.851,89.9532 221.351,59.6198 244,33.5C 247.419,30.1519 251.252,29.6519 255.5,32C 280.072,57.8818 290.405,88.7151 286.5,124.5 Z"/></g>
<g><path style="opacity:1" fill="#f5f9f8" d="M 267.5,148.5 C 266.662,148.158 266.328,147.492 266.5,146.5C 267.962,129.486 267.795,112.486 266,95.5C 264.269,82.0506 259.269,70.0506 251,59.5C 242.523,69.5747 237.523,81.2413 236,94.5C 233.869,112.883 234.036,131.216 236.5,149.5C 236.631,150.239 236.464,150.906 236,151.5C 218.956,112.293 223.956,76.2928 251,43.5C 276.835,75.1812 282.335,110.181 267.5,148.5 Z"/></g>
<g><path style="opacity:1" fill="#0e9449" d="M 266.5,146.5 C 265.833,147.833 265.167,149.167 264.5,150.5C 260.495,130.806 256.495,111.139 252.5,91.5C 251.5,91.5 250.5,91.5 249.5,91.5C 245.764,111.099 241.43,130.432 236.5,149.5C 234.036,131.216 233.869,112.883 236,94.5C 237.523,81.2413 242.523,69.5747 251,59.5C 259.269,70.0506 264.269,82.0506 266,95.5C 267.795,112.486 267.962,129.486 266.5,146.5 Z"/></g>
<g><path style="opacity:1" fill="#155156" d="M 183.5,138.5 C 192.078,152.069 196.745,166.903 197.5,183C 199.815,202.379 192.149,208.379 174.5,201C 162.783,195.657 152.783,188.157 144.5,178.5C 128.901,158.205 123.735,135.539 129,110.5C 131.995,107.735 135.495,106.902 139.5,108C 157.482,113.482 172.148,123.649 183.5,138.5 Z"/></g>
<g><path style="opacity:1" fill="#145157" d="M 358.5,177.5 C 347.346,190.142 333.679,198.975 317.5,204C 308.755,205.435 304.589,201.602 305,192.5C 303.236,172.891 307.736,154.891 318.5,138.5C 329.489,124.366 343.489,114.199 360.5,108C 369.743,106.241 374.576,110.074 375,119.5C 376.281,140.817 370.781,160.15 358.5,177.5 Z"/></g>
<g><path style="opacity:1" fill="#f0f5f3" d="M 184.5,171.5 C 175.887,155.381 163.887,142.214 148.5,132C 145.039,129.934 141.373,128.434 137.5,127.5C 137.125,124.603 137.625,121.937 139,119.5C 163.604,128.602 178.771,145.936 184.5,171.5 Z"/></g>
<g><path style="opacity:1" fill="#f4f8f6" d="M 363.5,127.5 C 349.612,132.874 338.112,141.541 329,153.5C 324.893,159.395 321.059,165.395 317.5,171.5C 323.183,146.148 338.183,128.814 362.5,119.5C 363.48,122.086 363.813,124.753 363.5,127.5 Z"/></g>
<g><path style="opacity:1" fill="#ebb36a" d="M 215.5,124.5 C 219.292,148.249 229.625,168.749 246.5,186C 249.964,186.817 253.298,186.483 256.5,185C 272.254,167.658 282.254,147.492 286.5,124.5C 297.333,128.578 307.999,133.245 318.5,138.5C 307.736,154.891 303.236,172.891 305,192.5C 304.589,201.602 308.755,205.435 317.5,204C 333.679,198.975 347.346,190.142 358.5,177.5C 364.308,188.117 369.308,199.117 373.5,210.5C 364.042,223.587 357.709,238.087 354.5,254C 354.4,257.804 356.066,260.471 359.5,262C 365.072,263.351 370.738,263.851 376.5,263.5C 376.915,269.84 376.082,276.173 374,282.5C 371.095,290.638 367.928,298.638 364.5,306.5C 348.015,299.795 331.015,294.795 313.5,291.5C 312.196,277.138 311.03,262.805 310,248.5C 314.214,252.382 318.714,255.882 323.5,259C 327.372,259.891 331.038,259.391 334.5,257.5C 335.583,256.635 335.749,255.635 335,254.5C 325.167,246 315.333,237.5 305.5,229C 287.126,221.598 268.793,214.098 250.5,206.5C 232.459,213.902 214.459,221.402 196.5,229C 186.167,238 175.833,247 165.5,256C 168.869,259.261 172.869,260.261 177.5,259C 182.788,255.768 187.622,251.935 192,247.5C 190.994,262.062 189.494,276.562 187.5,291C 170.271,294.466 153.605,299.632 137.5,306.5C 130.758,293.271 126.424,279.271 124.5,264.5C 130.017,263.642 135.683,262.809 141.5,262C 145.078,260.433 147.078,257.767 147.5,254C 144.153,238.1 137.819,223.6 128.5,210.5C 131.739,198.689 137.072,188.022 144.5,178.5C 152.783,188.157 162.783,195.657 174.5,201C 192.149,208.379 199.815,202.379 197.5,183C 196.745,166.903 192.078,152.069 183.5,138.5C 193.682,132.742 204.349,128.076 215.5,124.5 Z"/></g>
<g><path style="opacity:1" fill="#0b9148" d="M 363.5,127.5 C 363.273,151.619 353.273,170.619 333.5,184.5C 333.167,184.167 332.833,183.833 332.5,183.5C 337.649,172.373 341.982,161.04 345.5,149.5C 345.167,148.833 344.833,148.167 344.5,147.5C 335.514,155.986 326.681,164.652 318,173.5C 317.536,172.906 317.369,172.239 317.5,171.5C 321.059,165.395 324.893,159.395 329,153.5C 338.112,141.541 349.612,132.874 363.5,127.5 Z"/></g>
<g><path style="opacity:1" fill="#0a9247" d="M 137.5,127.5 C 141.373,128.434 145.039,129.934 148.5,132C 163.887,142.214 175.887,155.381 184.5,171.5C 184.631,172.239 184.464,172.906 184,173.5C 175.319,164.652 166.486,155.986 157.5,147.5C 156.5,147.833 155.833,148.5 155.5,149.5C 160.853,160.847 165.02,172.513 168,184.5C 148.956,170.42 138.789,151.42 137.5,127.5 Z"/></g>
<g><path style="opacity:1" fill="#8cb39d" d="M 266.5,146.5 C 266.328,147.492 266.662,148.158 267.5,148.5C 266.928,149.973 266.095,151.307 265,152.5C 264.536,151.906 264.369,151.239 264.5,150.5C 265.167,149.167 265.833,147.833 266.5,146.5 Z"/></g>
<g><path style="opacity:1" fill="#125156" d="M 128.5,210.5 C 137.819,223.6 144.153,238.1 147.5,254C 147.078,257.767 145.078,260.433 141.5,262C 135.683,262.809 130.017,263.642 124.5,264.5C 70.902,262.038 35.0687,235.704 17,185.5C 15.6071,180.905 15.2738,176.239 16,171.5C 17.214,169.951 18.714,168.785 20.5,168C 64.4031,162.464 100.403,176.63 128.5,210.5 Z"/></g>
<g><path style="opacity:1" fill="#125156" d="M 376.5,263.5 C 370.738,263.851 365.072,263.351 359.5,262C 356.066,260.471 354.4,257.804 354.5,254C 357.709,238.087 364.042,223.587 373.5,210.5C 402.225,174.477 439.225,160.977 484.5,170C 485.93,171.907 486.596,174.074 486.5,176.5C 476.777,217.73 451.777,245.23 411.5,259C 400.081,262.459 388.415,263.959 376.5,263.5 Z"/></g>
<g><path style="opacity:1" fill="#f6f9f9" d="M 122.5,223.5 C 103.481,206.822 81.4806,195.656 56.5,190C 47.5942,188.126 38.5942,187.292 29.5,187.5C 28.6766,184.539 28.01,181.539 27.5,178.5C 68.0184,175.316 99.685,190.316 122.5,223.5 Z"/></g>
<g><path style="opacity:1" fill="#f7f9f9" d="M 471.5,187.5 C 436.164,187.939 405.497,199.939 379.5,223.5C 399.021,193.898 426.687,178.564 462.5,177.5C 466.535,177.613 470.535,177.946 474.5,178.5C 474.072,181.785 473.072,184.785 471.5,187.5 Z"/></g>
<g><path style="opacity:1" fill="#059246" d="M 29.5,187.5 C 38.5942,187.292 47.5942,188.126 56.5,190C 81.4806,195.656 103.481,206.822 122.5,223.5C 123.364,224.688 124.364,225.855 125.5,227C 124.5,227.667 123.5,227.667 122.5,227C 104.122,219.437 85.7889,212.104 67.5,205C 66.5494,205.718 66.3828,206.551 67,207.5C 80.8333,222 94.6667,236.5 108.5,251C 70.2394,244.927 43.9061,223.761 29.5,187.5 Z"/></g>
<g><path style="opacity:1" fill="#059246" d="M 471.5,187.5 C 458.459,222.03 433.793,243.196 397.5,251C 395.833,251.667 394.167,251.667 392.5,251C 406.304,236.195 420.471,221.695 435,207.5C 435.617,206.551 435.451,205.718 434.5,205C 415.584,212.368 396.584,219.868 377.5,227.5C 376.956,225.905 377.623,224.571 379.5,223.5C 405.497,199.939 436.164,187.939 471.5,187.5 Z"/></g>
<g><path style="opacity:1" fill="#135257" d="M 364.5,306.5 C 378.245,312.539 391.578,319.372 404.5,327C 409.593,331.017 411.426,336.184 410,342.5C 395.298,390.179 366.798,427.013 324.5,453C 259.631,484.819 199.964,477.152 145.5,430C 120.721,405.964 102.888,377.464 92,344.5C 90.1382,334.394 93.9715,327.228 103.5,323C 114.462,316.685 125.795,311.185 137.5,306.5C 153.605,299.632 170.271,294.466 187.5,291C 189.494,276.562 190.994,262.062 192,247.5C 187.622,251.935 182.788,255.768 177.5,259C 172.869,260.261 168.869,259.261 165.5,256C 175.833,247 186.167,238 196.5,229C 214.459,221.402 232.459,213.902 250.5,206.5C 268.793,214.098 287.126,221.598 305.5,229C 315.333,237.5 325.167,246 335,254.5C 335.749,255.635 335.583,256.635 334.5,257.5C 331.038,259.391 327.372,259.891 323.5,259C 318.714,255.882 314.214,252.382 310,248.5C 311.03,262.805 312.196,277.138 313.5,291.5C 331.015,294.795 348.015,299.795 364.5,306.5 Z"/></g>
<g><path style="opacity:1" fill="#fafbfc" d="M 200.5,280.5 C 201.458,275.342 202.125,270.009 202.5,264.5C 202.5,262.833 202.5,261.167 202.5,259.5C 203.458,254.342 204.125,249.009 204.5,243.5C 204.104,240.956 204.771,238.789 206.5,237C 221.07,230.867 235.737,225.033 250.5,219.5C 264.591,224.71 278.591,230.21 292.5,236C 294.492,236.574 295.992,237.741 297,239.5C 299.272,255.356 300.438,271.19 300.5,287C 292.876,287.753 285.376,287.253 278,285.5C 277.667,273.5 277.333,261.5 277,249.5C 276.167,248.667 275.333,247.833 274.5,247C 266.599,245.864 258.599,245.364 250.5,245.5C 243.167,245.667 235.833,245.833 228.5,246C 225.906,247.339 224.406,249.506 224,252.5C 223.5,263.828 223.333,275.162 223.5,286.5C 216.157,286.891 208.824,287.057 201.5,287C 200.577,284.959 200.244,282.792 200.5,280.5 Z"/></g>
<g><path style="opacity:1" fill="#5d878b" d="M 204.5,243.5 C 204.125,249.009 203.458,254.342 202.5,259.5C 202.334,255.154 202.501,250.821 203,246.5C 203.232,245.263 203.732,244.263 204.5,243.5 Z"/></g>
<g><path style="opacity:1" fill="#fcfdfd" d="M 234.5,255.5 C 238.167,255.5 241.833,255.5 245.5,255.5C 245.5,265.167 245.5,274.833 245.5,284.5C 241.833,284.5 238.167,284.5 234.5,284.5C 234.5,274.833 234.5,265.167 234.5,255.5 Z"/></g>
<g><path style="opacity:1" fill="#fbfcfc" d="M 256.5,255.5 C 260.167,255.5 263.833,255.5 267.5,255.5C 267.5,265.167 267.5,274.833 267.5,284.5C 263.833,284.5 260.167,284.5 256.5,284.5C 256.5,274.833 256.5,265.167 256.5,255.5 Z"/></g>
<g><path style="opacity:1" fill="#72989b" d="M 234.5,255.5 C 234.5,265.167 234.5,274.833 234.5,284.5C 238.167,284.5 241.833,284.5 245.5,284.5C 241.702,285.483 237.702,285.817 233.5,285.5C 233.173,275.319 233.506,265.319 234.5,255.5 Z"/></g>
<g><path style="opacity:1" fill="#9ab5b7" d="M 256.5,255.5 C 256.5,265.167 256.5,274.833 256.5,284.5C 260.167,284.5 263.833,284.5 267.5,284.5C 263.702,285.483 259.702,285.817 255.5,285.5C 255.173,275.319 255.506,265.319 256.5,255.5 Z"/></g>
<g><path style="opacity:1" fill="#5d878b" d="M 202.5,264.5 C 202.125,270.009 201.458,275.342 200.5,280.5C 200.334,276.154 200.501,271.821 201,267.5C 201.232,266.263 201.732,265.263 202.5,264.5 Z"/></g>
<g><path style="opacity:1" fill="#fbfdfc" d="M 392.5,341.5 C 392.027,340.094 391.027,339.427 389.5,339.5C 386.477,337.322 383.144,335.655 379.5,334.5C 340.704,313.976 299.37,306.476 255.5,312C 203.676,320.914 158.676,343.08 120.5,378.5C 112.036,365.937 106.203,352.271 103,337.5C 147.154,309.541 195.488,295.874 248,296.5C 301.756,295.562 351.59,308.896 397.5,336.5C 400.036,339.138 399.703,341.471 396.5,343.5C 395.14,342.82 393.807,342.153 392.5,341.5 Z"/></g>
<g><path style="opacity:1" fill="#049246" d="M 379.5,334.5 C 315.702,308.923 257.035,317.423 203.5,360C 183.248,378.071 167.914,399.571 157.5,424.5C 144.706,413.873 133.872,401.54 125,387.5C 123.239,384.589 121.739,381.589 120.5,378.5C 158.676,343.08 203.676,320.914 255.5,312C 299.37,306.476 340.704,313.976 379.5,334.5 Z"/></g>
<g><path style="opacity:1" fill="#fcfdfd" d="M 389.5,362.5 C 347.942,347.374 306.609,347.874 265.5,364C 230.546,382.791 206.546,410.957 193.5,448.5C 184.616,444.142 176.116,439.142 168,433.5C 167.726,430.351 168.392,427.351 170,424.5C 198.241,365.951 244.908,334.951 310,331.5C 340.262,331.687 368.096,339.854 393.5,356C 392.267,358.314 390.933,360.481 389.5,362.5 Z"/></g>
<g><path style="opacity:1" fill="#6db392" d="M 389.5,339.5 C 391.027,339.427 392.027,340.094 392.5,341.5C 390.973,341.573 389.973,340.906 389.5,339.5 Z"/></g>
<g><path style="opacity:1" fill="#049246" d="M 389.5,362.5 C 389.67,363.822 389.337,364.989 388.5,366C 316.68,365.218 264.014,396.218 230.5,459C 217.613,457.528 205.28,454.028 193.5,448.5C 206.546,410.957 230.546,382.791 265.5,364C 306.609,347.874 347.942,347.374 389.5,362.5 Z"/></g>
<g><path style="opacity:1" fill="#6d9498" d="M 373.5,378.5 C 376.355,377.197 379.355,377.197 382.5,378.5C 382.376,379.107 382.043,379.44 381.5,379.5C 379.052,378.527 376.385,378.194 373.5,378.5 Z"/></g>
<g><path style="opacity:1" fill="#fafcfb" d="M 373.5,378.5 C 376.385,378.194 379.052,378.527 381.5,379.5C 381.5,380.167 381.167,380.5 380.5,380.5C 330.315,388.056 293.982,414.39 271.5,459.5C 268.482,459.704 265.482,460.037 262.5,460.5C 255.978,460.823 249.645,460.49 243.5,459.5C 267.087,416.449 303.087,389.949 351.5,380C 358.792,378.884 366.126,378.384 373.5,378.5 Z"/></g>
<g><path style="opacity:1" fill="#049246" d="M 380.5,380.5 C 356.256,423.397 319.923,449.73 271.5,459.5C 293.982,414.39 330.315,388.056 380.5,380.5 Z"/></g>
<g><path style="opacity:1" fill="#8cabae" d="M 243.5,459.5 C 249.645,460.49 255.978,460.823 262.5,460.5C 255.989,461.818 249.322,461.818 242.5,460.5C 242.624,459.893 242.957,459.56 243.5,459.5 Z"/></g>
</svg>
